<?xml version="1.0" encoding="UTF-8" standalone="no"?>
<svg
   xmlns:dc="http://purl.org/dc/elements/1.1/"
   xmlns:cc="http://creativecommons.org/ns#"
   xmlns:rdf="http://www.w3.org/1999/02/22-rdf-syntax-ns#"
   xmlns:svg="http://www.w3.org/2000/svg"
   xmlns="http://www.w3.org/2000/svg"
   xmlns:sodipodi="http://sodipodi.sourceforge.net/DTD/sodipodi-0.dtd"
   xmlns:inkscape="http://www.inkscape.org/namespaces/inkscape"
   width="599.99982"
   height="599.99994"
   id="svg2"
   version="1.1"
   inkscape:version="1.0.2 (e86c8708, 2021-01-15)"
   sodipodi:docname="logo-banner-2.svg"
   inkscape:export-filename="C:\Users\Davide\Documents\APS\TestLogo\LogoCortePolifonicaVFinal.png"
   inkscape:export-xdpi="90"
   inkscape:export-ydpi="90">
  <defs
     id="defs4">
    <inkscape:path-effect
       is_visible="true"
       id="path-effect5770"
       effect="spiro"
       lpeversion="0" />
    <inkscape:path-effect
       effect="spiro"
       id="path-effect5767"
       is_visible="true"
       lpeversion="0" />
    <inkscape:path-effect
       effect="spiro"
       id="path-effect5763"
       is_visible="true"
       lpeversion="0" />
    <inkscape:path-effect
       is_visible="true"
       id="path-effect5760"
       effect="spiro"
       lpeversion="0" />
    <inkscape:path-effect
       effect="spiro"
       id="path-effect5754"
       is_visible="true"
       lpeversion="0" />
    <inkscape:path-effect
       is_visible="true"
       id="path-effect5751"
       effect="spiro"
       lpeversion="0" />
    <inkscape:path-effect
       effect="spiro"
       id="path-effect5748"
       is_visible="true"
       lpeversion="0" />
    <inkscape:path-effect
       is_visible="true"
       id="path-effect5745"
       effect="spiro"
       lpeversion="0" />
    <inkscape:path-effect
       is_visible="true"
       id="path-effect5603"
       effect="spiro"
       lpeversion="0" />
    <inkscape:path-effect
       effect="spiro"
       id="path-effect5601"
       is_visible="true"
       lpeversion="0" />
    <inkscape:path-effect
       is_visible="true"
       id="path-effect5599"
       effect="spiro"
       lpeversion="0" />
    <inkscape:path-effect
       effect="spiro"
       id="path-effect5597"
       is_visible="true"
       lpeversion="0" />
    <inkscape:path-effect
       is_visible="true"
       id="path-effect5595"
       effect="spiro"
       lpeversion="0" />
    <inkscape:path-effect
       effect="spiro"
       id="path-effect5593"
       is_visible="true"
       lpeversion="0" />
    <inkscape:path-effect
       effect="spiro"
       id="path-effect5591"
       is_visible="true"
       lpeversion="0" />
    <inkscape:path-effect
       is_visible="true"
       id="path-effect5589"
       effect="spiro"
       lpeversion="0" />
    <inkscape:path-effect
       effect="spiro"
       id="path-effect5302"
       is_visible="true"
       lpeversion="0" />
    <inkscape:path-effect
       is_visible="true"
       id="path-effect5299"
       effect="spiro"
       lpeversion="0" />
    <inkscape:path-effect
       is_visible="true"
       id="path-effect5295"
       effect="spiro"
       lpeversion="0" />
    <inkscape:path-effect
       effect="spiro"
       id="path-effect5292"
       is_visible="true"
       lpeversion="0" />
    <inkscape:path-effect
       is_visible="true"
       id="path-effect5286"
       effect="spiro"
       lpeversion="0" />
    <inkscape:path-effect
       effect="spiro"
       id="path-effect5283"
       is_visible="true"
       lpeversion="0" />
    <inkscape:path-effect
       is_visible="true"
       id="path-effect5280"
       effect="spiro"
       lpeversion="0" />
    <inkscape:path-effect
       effect="spiro"
       id="path-effect5277"
       is_visible="true"
       lpeversion="0" />
    <inkscape:path-effect
       is_visible="true"
       id="path-effect5160"
       effect="spiro"
       lpeversion="0" />
    <inkscape:path-effect
       effect="spiro"
       id="path-effect5158"
       is_visible="true"
       lpeversion="0" />
    <inkscape:path-effect
       effect="spiro"
       id="path-effect5156"
       is_visible="true"
       lpeversion="0" />
    <inkscape:path-effect
       is_visible="true"
       id="path-effect5154"
       effect="spiro"
       lpeversion="0" />
    <inkscape:path-effect
       effect="spiro"
       id="path-effect5152"
       is_visible="true"
       lpeversion="0" />
    <inkscape:path-effect
       is_visible="true"
       id="path-effect5150"
       effect="spiro"
       lpeversion="0" />
    <inkscape:path-effect
       effect="spiro"
       id="path-effect5148"
       is_visible="true"
       lpeversion="0" />
    <inkscape:path-effect
       is_visible="true"
       id="path-effect5146"
       effect="spiro"
       lpeversion="0" />
    <inkscape:path-effect
       effect="spiro"
       id="path-effect5144"
       is_visible="true"
       lpeversion="0" />
    <inkscape:path-effect
       is_visible="true"
       id="path-effect5142"
       effect="spiro"
       lpeversion="0" />
    <inkscape:path-effect
       is_visible="true"
       id="path-effect5140"
       effect="spiro"
       lpeversion="0" />
    <inkscape:path-effect
       effect="spiro"
       id="path-effect5138"
       is_visible="true"
       lpeversion="0" />
    <inkscape:path-effect
       effect="spiro"
       id="path-effect5076"
       is_visible="true"
       lpeversion="0" />
    <inkscape:path-effect
       is_visible="true"
       id="path-effect5072"
       effect="spiro"
       lpeversion="0" />
    <inkscape:path-effect
       is_visible="true"
       id="path-effect5068"
       effect="spiro"
       lpeversion="0" />
    <inkscape:path-effect
       effect="spiro"
       id="path-effect5064"
       is_visible="true"
       lpeversion="0" />
    <inkscape:path-effect
       is_visible="true"
       id="path-effect5060"
       effect="spiro"
       lpeversion="0" />
    <inkscape:path-effect
       effect="spiro"
       id="path-effect5056"
       is_visible="true"
       lpeversion="0" />
    <inkscape:path-effect
       is_visible="true"
       id="path-effect5052"
       effect="spiro"
       lpeversion="0" />
    <inkscape:path-effect
       effect="spiro"
       id="path-effect5048"
       is_visible="true"
       lpeversion="0" />
    <inkscape:path-effect
       effect="spiro"
       id="path-effect5044"
       is_visible="true"
       lpeversion="0" />
    <inkscape:path-effect
       is_visible="true"
       id="path-effect5027"
       effect="spiro"
       lpeversion="0" />
    <inkscape:path-effect
       effect="spiro"
       id="path-effect5024"
       is_visible="true"
       lpeversion="0" />
    <inkscape:path-effect
       effect="spiro"
       id="path-effect5020"
       is_visible="true"
       lpeversion="0" />
    <inkscape:path-effect
       is_visible="true"
       id="path-effect5017"
       effect="spiro"
       lpeversion="0" />
    <inkscape:path-effect
       effect="spiro"
       id="path-effect4953"
       is_visible="true"
       lpeversion="0" />
    <inkscape:path-effect
       is_visible="true"
       id="path-effect4949"
       effect="spiro"
       lpeversion="0" />
    <inkscape:path-effect
       is_visible="true"
       id="path-effect4943"
       effect="spiro"
       lpeversion="0" />
    <inkscape:path-effect
       effect="spiro"
       id="path-effect4935"
       is_visible="true"
       lpeversion="0" />
    <clipPath
       clipPathUnits="userSpaceOnUse"
       id="clipPath3938">
      <rect
         style="fill:none;stroke:#000000;stroke-width:1;stroke-linecap:square;stroke-linejoin:miter;stroke-miterlimit:4;stroke-dasharray:none;stroke-dashoffset:15;stroke-opacity:1"
         id="rect3940"
         width="436.16245"
         height="395.64462"
         x="1506.3097"
         y="1540.9595" />
    </clipPath>
  </defs>
  <sodipodi:namedview
     id="base"
     pagecolor="#ffffff"
     bordercolor="#666666"
     borderopacity="1.0"
     inkscape:pageopacity="0.0"
     inkscape:pageshadow="2"
     inkscape:zoom="1.0783334"
     inkscape:cx="300.92727"
     inkscape:cy="295.36318"
     inkscape:document-units="px"
     inkscape:current-layer="layer1"
     showgrid="true"
     width="600px"
     inkscape:window-width="1440"
     inkscape:window-height="855"
     inkscape:window-x="0"
     inkscape:window-y="23"
     inkscape:window-maximized="1"
     inkscape:document-rotation="0"
     fit-margin-top="0"
     fit-margin-left="0"
     fit-margin-right="0"
     fit-margin-bottom="0">
    <inkscape:grid
       type="xygrid"
       id="grid3771"
       empspacing="5"
       visible="true"
       enabled="true"
       snapvisiblegridlinesonly="true"
       originx="-8.8970245e-05"
       originy="-4.1820678e-05" />
  </sodipodi:namedview>
  <metadata
     id="metadata7">
    <rdf:RDF>
      <cc:Work
         rdf:about="">
        <dc:format>image/svg+xml</dc:format>
        <dc:type
           rdf:resource="http://purl.org/dc/dcmitype/StillImage" />
        <dc:title />
      </cc:Work>
    </rdf:RDF>
  </metadata>
  <g
     inkscape:label="Layer 1"
     inkscape:groupmode="layer"
     id="layer1"
     transform="translate(-8.8970245e-5,-452.36223)">
    <path
       inkscape:export-ydpi="200"
       inkscape:export-xdpi="200"
       inkscape:export-filename="C:\Users\Davide\Documents\APS\TestLogo2.png"
       id="path4973"
       d="M 298.125,452.36219 H 590 v 380 H 298.125 Z"
       style="fill:#adb828;fill-opacity:1;stroke:none;stroke-width:1.18225"
       inkscape:connector-curvature="0" />
    <path
       inkscape:export-ydpi="200"
       inkscape:export-xdpi="200"
       inkscape:export-filename="C:\Users\Davide\Documents\APS\TestLogo2.png"
       id="path4977"
       d="M 8.125,452.36219 H 300 v 380 H 8.125 Z"
       style="fill:#76b7b2;fill-opacity:1;stroke:none;stroke-width:1.18225"
       inkscape:connector-curvature="0" />
    <flowRoot
       transform="translate(0,452.36219)"
       style="font-style:normal;font-weight:normal;line-height:0.01%;font-family:sans-serif;letter-spacing:0px;word-spacing:0px;fill:#000000;fill-opacity:1;stroke:none"
       id="flowRoot4961"
       xml:space="preserve"><flowRegion
         id="flowRegion4963"
         style="font-family:sans-serif"><rect
           y="1353.5319"
           x="35.787792"
           height="181.92128"
           width="692.89142"
           id="rect4965" /></flowRegion><flowPara
         id="flowPara4967"
         style="font-size:40px;line-height:1.25;font-family:sans-serif"> </flowPara></flowRoot>
    <path
       inkscape:export-ydpi="200"
       inkscape:export-xdpi="200"
       inkscape:export-filename="C:\Users\Davide\Documents\APS\TestLogo2.png"
       sodipodi:nodetypes="ccccc"
       inkscape:connector-curvature="0"
       id="path4975"
       d="m 300,812.36219 c 80,-200 220,-180 300,0 l -10,240.00001 -290,0 z"
       style="fill:#e15759;fill-opacity:1;stroke:none;stroke-width:1.07718" />
    <path
       inkscape:export-ydpi="200"
       inkscape:export-xdpi="200"
       inkscape:export-filename="C:\Users\Davide\Documents\APS\TestLogo2.png"
       sodipodi:nodetypes="ccccc"
       inkscape:connector-curvature="0"
       id="path4979"
       d="m 0,812.36219 c 100,-180 220,-200 300,-3.28279 v 243.2828 H 15 Z"
       style="fill:#edc948;fill-opacity:1;stroke:none;stroke-width:1.07633" />
    <path
       inkscape:export-ydpi="200"
       inkscape:export-xdpi="200"
       inkscape:export-filename="C:\Users\Davide\Documents\APS\TestLogo2.png"
       sodipodi:nodetypes="ccccccccc"
       inkscape:connector-curvature="0"
       id="path4981"
       d="M 16.29971,864.3424 10,1002.3622 1.99891,995.3424 v -131 c 0,-261.9485 304.99999,-261.7395 304.99999,0 v 131 h -14.3008 c -0.3274,-13.676 0,-131 0,-131 0,-242.7956 -276.39839,-242.4224 -276.39839,0 z"
       style="fill:#000000;fill-opacity:1;stroke:#000000;stroke-width:1.35642;stroke-linecap:square;stroke-linejoin:miter;stroke-miterlimit:4;stroke-dashoffset:15;stroke-opacity:1" />
    <path
       style="fill:#000000;fill-opacity:1;stroke:#000000;stroke-width:1.35642;stroke-linecap:square;stroke-linejoin:miter;stroke-miterlimit:4;stroke-dashoffset:15;stroke-opacity:1"
       d="m 306.9989,864.3424 v 131 h -14.3008 v -131 c 0,-261.9485 305,-261.7395 305,0 v 131 L 590,1002.3622 c -0.32741,-13.67601 -6.60269,-138.0198 -6.60269,-138.0198 0,-242.7956 -276.39841,-242.4224 -276.39841,0 z"
       id="path4983"
       inkscape:connector-curvature="0"
       sodipodi:nodetypes="ccccccccc"
       inkscape:export-filename="C:\Users\Davide\Documents\APS\TestLogo2.png"
       inkscape:export-xdpi="200"
       inkscape:export-ydpi="200" />
    <path
       inkscape:export-ydpi="200"
       inkscape:export-xdpi="200"
       inkscape:export-filename="C:\Users\Davide\Documents\APS\TestLogo2.png"
       sodipodi:nodetypes="ccccc"
       inkscape:connector-curvature="0"
       id="path4985"
       d="M 306.8485,452.36219 V 1052.3622 H 292.54771 V 452.36219 Z"
       style="fill:#000000;fill-opacity:1;stroke:#000000;stroke-width:1.50868;stroke-linecap:square;stroke-linejoin:miter;stroke-miterlimit:4;stroke-dashoffset:15;stroke-opacity:1" />
    <path
       inkscape:export-ydpi="200"
       inkscape:export-xdpi="200"
       inkscape:export-filename="C:\Users\Davide\Documents\APS\TestLogo2.png"
       transform="matrix(-0.21688365,0.37858092,-0.37858092,-0.21688365,369.8263,1272.5039)"
       d="m -415.10069,1081.3761 c 12.50805,2.7648 14.37601,18.8434 9.31442,28.4672 -9.12448,17.3488 -32.53679,19.157 -47.69884,9.1101 -22.32366,-14.7924 -24.08607,-46.4225 -8.90576,-66.9304 20.26972,-27.3834 60.37614,-29.0779 86.16196,-8.7014 32.48642,25.6714 34.10205,74.3619 8.49712,105.3935 -3.86488,4.684 -8.25801,8.9288 -13.06196,12.6429"
       sodipodi:t0="0.1594262"
       sodipodi:argument="-8.5893679"
       sodipodi:radius="83.16404"
       sodipodi:revolution="1.5288029"
       sodipodi:expansion="1"
       sodipodi:cy="1090.6511"
       sodipodi:cx="-424.57495"
       id="path4995"
       style="fill:none;stroke:#000000;stroke-width:18.3358;stroke-linecap:round;stroke-linejoin:round;stroke-miterlimit:4;stroke-dasharray:none;stroke-opacity:1"
       sodipodi:type="spiral" />
    <path
       inkscape:export-ydpi="200"
       inkscape:export-xdpi="200"
       inkscape:export-filename="C:\Users\Davide\Documents\APS\TestLogo2.png"
       sodipodi:type="spiral"
       style="fill:none;stroke:#000000;stroke-width:18.3358;stroke-linecap:round;stroke-linejoin:round;stroke-miterlimit:4;stroke-dasharray:none;stroke-opacity:1"
       id="path4997"
       sodipodi:cx="-424.57495"
       sodipodi:cy="1090.6511"
       sodipodi:expansion="1"
       sodipodi:revolution="1.5288029"
       sodipodi:radius="83.16404"
       sodipodi:argument="-8.5893679"
       sodipodi:t0="0.1594262"
       d="m -415.10069,1081.3761 c 12.50805,2.7648 14.37601,18.8434 9.31442,28.4672 -9.12448,17.3488 -32.53679,19.157 -47.69884,9.1101 -22.32366,-14.7924 -24.08607,-46.4225 -8.90576,-66.9304 20.26972,-27.3834 60.37614,-29.0779 86.16196,-8.7014 32.48642,25.6714 34.10205,74.3619 8.49712,105.3935 -3.86488,4.684 -8.25801,8.9288 -13.06196,12.6429"
       transform="matrix(0.21688365,-0.37858092,0.37858092,0.21688365,-59.224,553.2577)" />
    <path
       inkscape:export-ydpi="200"
       inkscape:export-xdpi="200"
       inkscape:export-filename="C:\Users\Davide\Documents\APS\TestLogo2.png"
       sodipodi:nodetypes="cscsscazzsc"
       inkscape:connector-curvature="0"
       inkscape:original-d="m 246.8354,728.0784 c -5.4412,-0.7896 -10.25109,-2.4487 -14.922,-2.3411 -4.671,0.1076 -6.178,-2.9558 -6.178,-2.9558 0,0 -13.8305,16.4411 -12.0006,20.0995 2.16511,4.3283 9.6061,1.2019 14.9864,0.2848 2.84141,-0.4844 6.1608,-1.1679 6.1608,-1.1679 0,0 -3.9438,6.8776 -3.15409,10.2542 1.11969,4.7875 5.18349,10.3332 10.4437,10.9958 5.2602,0.6625 10.1824,-12.0175 9.7923,-13.6915 -0.39,-1.6739 -6.2306,-3.4551 -7.41521,-8.4061 -1.1847,-4.951 2.2867,-13.0719 2.2867,-13.0719 z"
       inkscape:path-effect="#path-effect5302"
       id="path4999"
       d="m 246.8354,728.0784 c -5.06361,0.22637 -10.171,-0.57493 -14.922,-2.3411 -2.14273,-0.79656 -4.21328,-1.78719 -6.178,-2.9558 -2.63203,-1.90525 -6.07647,-2.64585 -9.259,-1.99082 -3.18252,0.65503 -6.05452,2.6957 -7.7202,5.48551 -1.66568,2.78981 -2.09961,6.28615 -1.16644,9.3985 0.93317,3.11235 3.21919,5.79317 6.14504,7.20631 2.29124,1.10663 4.89341,1.44157 7.43633,1.3523 2.54292,-0.0893 5.05183,-0.58461 7.55007,-1.0675 2.05219,-0.39668 4.10581,-0.78598 6.1608,-1.1679 -2.3622,2.81306 -3.52698,6.59985 -3.15409,10.2542 0.27815,2.72592 1.40387,5.37743 3.26189,7.39134 1.85801,2.0139 4.45258,3.3609 7.18181,3.60446 1.70626,0.15227 3.45129,-0.12224 5.02077,-0.80873 1.56947,-0.6865 2.95906,-1.78531 3.97349,-3.1657 1.01442,-1.38039 1.64916,-3.03996 1.79574,-4.74673 0.14658,-1.70676 -0.19787,-3.45548 -0.9977,-4.97034 -0.87599,-1.65912 -2.25259,-2.99053 -3.62841,-4.26612 -1.37583,-1.2756 -2.79336,-2.54841 -3.7868,-4.13998 -1.28237,-2.05447 -1.77598,-4.58802 -1.35866,-6.97363 0.41732,-2.38562 1.7417,-4.60114 3.64536,-6.09827 z"
       style="fill:none;stroke:#000000;stroke-width:7;stroke-linecap:butt;stroke-linejoin:miter;stroke-miterlimit:4;stroke-dasharray:none;stroke-opacity:1" />
    <path
       inkscape:export-ydpi="200"
       inkscape:export-xdpi="200"
       inkscape:export-filename="C:\Users\Davide\Documents\APS\TestLogo2.png"
       style="fill:none;stroke:#000000;stroke-width:7;stroke-linecap:butt;stroke-linejoin:miter;stroke-miterlimit:4;stroke-dasharray:none;stroke-opacity:1"
       d="m 83.7536,685.4735 c -5.063609,-0.22637 -10.170999,0.57493 -14.922,2.3411 -2.142732,0.79656 -4.213275,1.78719 -6.178,2.9558 -2.63203,1.90519 -6.076441,2.64575 -9.25893,1.9907 -3.18249,-0.65505 -6.054445,-2.6957 -7.720111,-5.48549 -1.665667,-2.78978 -2.099601,-6.28608 -1.16646,-9.3984 0.933141,-3.11233 3.219103,-5.79315 6.144901,-7.20631 2.291226,-1.10667 4.893397,-1.44164 7.436321,-1.35239 2.542924,0.0893 5.051835,0.58458 7.550079,1.06749 2.052196,0.39669 4.105813,0.78603 6.1608,1.168 -2.362208,-2.81306 -3.526989,-6.59985 -3.1541,-10.2542 0.278152,-2.72592 1.403873,-5.37744 3.261887,-7.39134 1.858014,-2.0139 4.452583,-3.3609 7.181813,-3.60446 1.706264,-0.15227 3.451291,0.12224 5.020765,0.80873 1.569473,0.6865 2.959066,1.78531 3.97349,3.1657 1.014423,1.38039 1.649166,3.03996 1.795747,4.74673 0.146581,1.70676 -0.197876,3.45548 -0.997702,4.97034 -0.875992,1.65912 -2.252584,2.99052 -3.628406,4.26612 -1.375823,1.2756 -2.793354,2.54841 -3.786794,4.13998 -1.282372,2.05447 -1.775977,4.58802 -1.358655,6.97363 0.417322,2.38562 1.741693,4.60114 3.645355,6.09827 z"
       id="path5001"
       inkscape:path-effect="#path-effect5299"
       inkscape:original-d="m 83.7536,685.4735 c -5.44119,0.7896 -10.2511,2.4487 -14.922,2.3411 -4.671,-0.1077 -6.178,2.9558 -6.178,2.9558 0,0 -13.8305,-16.4411 -12.0006,-20.0995 2.1651,-4.3283 9.6061,-1.2019 14.9864,-0.2849 2.8414,0.4844 6.1608,1.168 6.1608,1.168 0,0 -3.9438,-6.8776 -3.1541,-10.2542 1.1197,-4.7875 5.1835,-10.3332 10.4437,-10.9958 5.2602,-0.6625 10.1824,12.0175 9.7923,13.6915 -0.39,1.6739 -6.2306,3.4551 -7.4152,8.4061 -1.1847,4.951 2.2867,13.0719 2.2867,13.0719 z"
       inkscape:connector-curvature="0"
       sodipodi:nodetypes="cscsscazzsc" />
    <path
       inkscape:export-ydpi="200"
       inkscape:export-xdpi="200"
       inkscape:export-filename="C:\Users\Davide\Documents\APS\TestLogo2.png"
       transform="matrix(0.43396507,0.04512591,-0.04512591,0.43396507,587.61241,212.1067)"
       d="m -415.10069,1081.3761 c 12.50805,2.7648 14.37601,18.8434 9.31442,28.4672 -9.12448,17.3488 -32.53679,19.157 -47.69884,9.1101 -22.32366,-14.7924 -24.08607,-46.4225 -8.90576,-66.9304 20.26972,-27.3834 60.37614,-29.0779 86.16196,-8.7014 32.48642,25.6714 34.10205,74.3619 8.49712,105.3935 -3.86488,4.684 -8.25801,8.9288 -13.06196,12.6429"
       sodipodi:t0="0.1594262"
       sodipodi:argument="-8.5893679"
       sodipodi:radius="83.16404"
       sodipodi:revolution="1.5288029"
       sodipodi:expansion="1"
       sodipodi:cy="1090.6511"
       sodipodi:cx="-424.57495"
       id="path5003"
       style="fill:none;stroke:#000000;stroke-width:18.3358;stroke-linecap:round;stroke-linejoin:round;stroke-miterlimit:4;stroke-dasharray:none;stroke-opacity:1"
       sodipodi:type="spiral" />
    <path
       inkscape:export-ydpi="200"
       inkscape:export-xdpi="200"
       inkscape:export-filename="C:\Users\Davide\Documents\APS\TestLogo2.png"
       style="fill:none;stroke:#000000;stroke-width:7;stroke-linecap:butt;stroke-linejoin:miter;stroke-miterlimit:4;stroke-dasharray:none;stroke-opacity:1"
       d="m 511.31171,685.4734 c 5.06361,-0.22641 10.17101,0.57488 14.922,2.3411 2.14274,0.79658 4.21328,1.78724 6.178,2.9559 2.63204,1.90522 6.07648,2.6458 9.259,1.99075 3.18252,-0.65505 6.0545,-2.69573 7.72018,-5.48554 1.66567,-2.78981 2.0996,-6.28614 1.16643,-9.39849 -0.93317,-3.11235 -3.21918,-5.79317 -6.14502,-7.20632 -2.29124,-1.10664 -4.89341,-1.44159 -7.43633,-1.35233 -2.54292,0.0893 -5.05183,0.58461 -7.55007,1.06753 -2.0522,0.3967 -4.10581,0.78603 -6.1608,1.168 2.36221,-2.81306 3.52699,-6.59985 3.1541,-10.2542 -0.27815,-2.72592 -1.40387,-5.37743 -3.26189,-7.39134 -1.85801,-2.0139 -4.45258,-3.3609 -7.18181,-3.60446 -1.70626,-0.15227 -3.45129,0.12224 -5.02077,0.80873 -1.56947,0.68649 -2.95906,1.78531 -3.97349,3.1657 -1.01442,1.38038 -1.64917,3.03996 -1.79575,4.74673 -0.14658,1.70676 0.19788,3.45548 0.99771,4.97034 0.876,1.65912 2.25259,2.99052 3.62841,4.26612 1.37583,1.27559 2.79336,2.5484 3.7868,4.13998 1.28236,2.05446 1.77596,4.58798 1.35863,6.97358 -0.41732,2.3856 -1.74168,4.60111 -3.64533,6.09822 z"
       id="path5005"
       inkscape:path-effect="#path-effect5295"
       inkscape:original-d="m 511.31171,685.4734 c 5.44119,0.7897 10.25109,2.4488 14.922,2.3411 4.671,-0.1076 6.178,2.9559 6.178,2.9559 0,0 13.8305,-16.4412 12.00059,-20.0996 -2.1651,-4.3282 -9.60609,-1.2018 -14.9864,-0.2848 -2.8414,0.4844 -6.1608,1.168 -6.1608,1.168 0,0 3.94381,-6.8777 3.1541,-10.2542 -1.11969,-4.7875 -5.1835,-10.3332 -10.4437,-10.9958 -5.2602,-0.6625 -10.1824,12.0175 -9.7923,13.6915 0.39,1.6738 6.2306,3.455 7.41521,8.4061 1.1847,4.951 -2.2867,13.0718 -2.2867,13.0718 z"
       inkscape:connector-curvature="0"
       sodipodi:nodetypes="cscsscazzsc" />
    <path
       inkscape:export-ydpi="200"
       inkscape:export-xdpi="200"
       inkscape:export-filename="C:\Users\Davide\Documents\APS\TestLogo2.png"
       sodipodi:nodetypes="cscsscazzsc"
       inkscape:connector-curvature="0"
       inkscape:original-d="m 311.92171,895.6179 c 4.4256,3.2626 7.8844,6.9941 12.05399,9.1021 4.1696,2.1081 4.0536,5.5202 4.0536,5.5202 0,0 19.9499,-7.9748 20.0617,-12.0638 0.1322,-4.8378 -7.9038,-5.5903 -13.0806,-7.3192 -2.734,-0.913 -5.9834,-1.8757 -5.9834,-1.8757 0,0 6.72131,-4.2047 7.6174,-7.5546 1.2706,-4.7496 0.3027,-11.5564 -4.0232,-14.6216 -4.326,-3.0651 -14.6466,5.7946 -15.09209,7.4547 -0.44561,1.6599 3.8646,5.9852 2.5741,10.9098 -1.2904,4.9245 -8.1815,10.4481 -8.1815,10.4481 z"
       inkscape:path-effect="#path-effect5292"
       id="path5007"
       d="m 311.92171,895.6179 c 4.57184,2.18853 8.6976,5.30393 12.05399,9.1021 1.51375,1.71299 2.87231,3.56308 4.0536,5.5202 1.42234,2.92138 4.11035,5.19895 7.22562,6.12232 3.11528,0.92338 6.61023,0.47845 9.39479,-1.196 2.78456,-1.67445 4.81618,-4.55285 5.4612,-7.73742 0.64503,-3.18457 -0.1064,-6.62667 -2.01991,-9.2527 -1.49847,-2.05645 -3.63508,-3.57907 -5.91951,-4.69968 -2.28444,-1.12061 -4.7304,-1.8671 -7.16109,-2.61952 -1.9967,-0.61808 -3.99118,-1.24332 -5.9834,-1.8757 3.40969,-1.3665 6.22272,-4.15634 7.6174,-7.5546 1.04035,-2.53489 1.29823,-5.40389 0.60968,-8.05604 -0.68856,-2.65214 -2.34114,-5.0636 -4.63288,-6.56556 -1.43275,-0.939 -3.10097,-1.51995 -4.80869,-1.65481 -1.70772,-0.13487 -3.45128,0.17868 -4.99682,0.91747 -1.54554,0.73878 -2.88796,1.90281 -3.82218,3.33869 -0.93421,1.43588 -1.45522,3.14034 -1.4644,4.85335 -0.01,1.87616 0.57589,3.69945 1.18748,5.47316 0.61158,1.77371 1.26126,3.56464 1.38662,5.43664 0.16182,2.4164 -0.59783,4.88324 -2.09095,6.79001 -1.49312,1.90678 -3.70584,3.23577 -6.09055,3.65809 z"
       style="fill:none;stroke:#000000;stroke-width:7;stroke-linecap:butt;stroke-linejoin:miter;stroke-miterlimit:4;stroke-dasharray:none;stroke-opacity:1" />
    <path
       inkscape:export-ydpi="200"
       inkscape:export-xdpi="200"
       inkscape:export-filename="C:\Users\Davide\Documents\APS\TestLogo2.png"
       transform="matrix(0.29871121,0.31801516,0.31801516,-0.29871121,331.84071,1330.9439)"
       d="m -415.10069,1081.3761 c 12.50805,2.7648 14.37601,18.8434 9.31442,28.4672 -9.12448,17.3488 -32.53679,19.157 -47.69884,9.1101 -22.32366,-14.7924 -24.08607,-46.4225 -8.90576,-66.9304 20.26972,-27.3834 60.37614,-29.0779 86.16196,-8.7014 32.48642,25.6714 34.10205,74.3619 8.49712,105.3935 -3.86488,4.684 -8.25801,8.9288 -13.06196,12.6429"
       sodipodi:t0="0.1594262"
       sodipodi:argument="-8.5893679"
       sodipodi:radius="83.16404"
       sodipodi:revolution="1.5288029"
       sodipodi:expansion="1"
       sodipodi:cy="1090.6511"
       sodipodi:cx="-424.57495"
       id="path5009"
       style="fill:none;stroke:#000000;stroke-width:18.3358;stroke-linecap:round;stroke-linejoin:round;stroke-miterlimit:4;stroke-dasharray:none;stroke-opacity:1"
       sodipodi:type="spiral" />
    <path
       sodipodi:nodetypes="ccacccc"
       inkscape:connector-curvature="0"
       inkscape:original-d="m 301.44251,837.4274 h 10 c 0,0 2.2292,-10.5167 5,-15 2.4783,-4.01 10,-10 10,-10 v -5 h -25 z"
       inkscape:path-effect="#path-effect5286"
       id="path5046"
       d="m 301.44251,837.4274 h 10 c 0.4083,-5.30787 2.14192,-10.50872 5,-15 2.55114,-4.00893 5.99107,-7.44886 10,-10 v -5 h -25 z"
       style="fill:#000000;fill-opacity:1;stroke:#000000;stroke-width:1px;stroke-linecap:butt;stroke-linejoin:miter;stroke-opacity:1" />
    <path
       style="fill:#000000;fill-opacity:1;stroke:#000000;stroke-width:1px;stroke-linecap:butt;stroke-linejoin:miter;stroke-opacity:1"
       d="m 298.44251,837.4274 h -10 c -0.4083,-5.30787 -2.14192,-10.50872 -5,-15 -2.55114,-4.00893 -5.99107,-7.44886 -10,-10 v -5 h 25 z"
       id="path5050"
       inkscape:path-effect="#path-effect5283"
       inkscape:original-d="m 298.44251,837.4274 h -10 c 0,0 -2.2292,-10.5167 -5,-15 -2.4783,-4.01 -10,-10 -10,-10 v -5 h 25 z"
       inkscape:connector-curvature="0"
       sodipodi:nodetypes="ccacccc" />
    <path
       sodipodi:nodetypes="ccacccc"
       inkscape:connector-curvature="0"
       inkscape:original-d="m 586.44251,837.4274 h -10 c 0,0 -2.2292,-10.5167 -5,-15 -2.4783,-4.01 -10,-10 -10,-10 v -5 h 25 z"
       inkscape:path-effect="#path-effect5280"
       id="path5054"
       d="m 586.44251,837.4274 h -10 c -0.4083,-5.30787 -2.14192,-10.50872 -5,-15 -2.55114,-4.00893 -5.99107,-7.44886 -10,-10 v -5 h 25 z"
       style="fill:#000000;fill-opacity:1;stroke:#000000;stroke-width:1px;stroke-linecap:butt;stroke-linejoin:miter;stroke-opacity:1" />
    <path
       style="fill:#000000;fill-opacity:1;stroke:#000000;stroke-width:1px;stroke-linecap:butt;stroke-linejoin:miter;stroke-opacity:1"
       d="m 11.4425,837.4274 h 10 c 0.408298,-5.30787 2.141916,-10.50872 5,-15 2.551138,-4.00893 5.991069,-7.44886 10,-10 v -5 h -25 z"
       id="path5058"
       inkscape:path-effect="#path-effect5277"
       inkscape:original-d="m 11.4425,837.4274 h 10 c 0,0 2.2292,-10.5167 5,-15 2.4783,-4.01 10,-10 10,-10 v -5 h -25 z"
       inkscape:connector-curvature="0"
       sodipodi:nodetypes="ccacccc" />
    <path
       style="fill:none;stroke:#000000;stroke-width:15.205;stroke-linecap:butt;stroke-linejoin:miter;stroke-miterlimit:4;stroke-dasharray:none;stroke-opacity:1"
       d="m 594,452.36219 c 0,600.00001 0,600.00001 0,600.00001"
       id="path957" />
    <path
       style="fill:none;stroke:#000000;stroke-width:15.205;stroke-linecap:butt;stroke-linejoin:miter;stroke-miterlimit:4;stroke-dasharray:none;stroke-opacity:1"
       d="M 8,452.36219 C 8,1052.3622 8,1052.3622 8,1052.3622"
       id="path957-0" />
  </g>
  <g
     inkscape:groupmode="layer"
     id="layer2"
     inkscape:label="Layer 2" />
</svg>
